<svg xmlns="http://www.w3.org/2000/svg" width="200" height="200" viewBox="0 0 200 200">
  <rect width="200" height="200" fill="#fff" />
  <rect width="200" height="200" fill="none" stroke="#111" stroke-width="12" />
  <rect x="20" y="20" width="44" height="44" fill="#fff" stroke="#111" stroke-width="12" />
  <rect x="136" y="20" width="44" height="44" fill="#fff" stroke="#111" stroke-width="12" />
  <rect x="20" y="136" width="44" height="44" fill="#fff" stroke="#111" stroke-width="12" />
  <rect x="84" y="84" width="32" height="32" fill="#111" />
  <rect x="76" y="20" width="20" height="20" fill="#111" />
  <rect x="116" y="68" width="20" height="20" fill="#111" />
  <rect x="44" y="96" width="20" height="20" fill="#111" />
  <rect x="68" y="140" width="20" height="20" fill="#111" />
  <rect x="124" y="132" width="20" height="20" fill="#111" />
  <rect x="156" y="92" width="20" height="20" fill="#111" />
  <rect x="96" y="36" width="20" height="20" fill="#111" />
  <rect x="36" y="64" width="20" height="20" fill="#111" />
  <rect x="132" y="160" width="20" height="20" fill="#111" />
  <rect x="44" y="160" width="20" height="20" fill="#111" />
</svg>
